<?xml version="1.0" encoding="UTF-8"?>
<svg width="32px" height="32px" viewBox="0 0 32 32" version="1.1" xmlns="http://www.w3.org/2000/svg">
    <g transform="translate(2, 2)" fill="none" fill-rule="evenodd">
        <circle fill="#F7931A" cx="14" cy="14" r="14"/>
        <path d="M19.25,13.44 C19.5833333,11.52 18.1666667,10.56 16.1666667,9.92 L16.8333333,7.36 L15.25,7.04 L14.5833333,9.6 C14.1666667,9.44 13.75,9.44 13.3333333,9.28 L14,6.72 L12.4166667,6.4 L11.75,8.96 C11.4166667,8.8 11.0833333,8.64 10.75,8.48 L10.75,8.48 L8.58333333,7.84 L8.25,9.6 C8.25,9.6 9.41666667,9.92 9.41666667,9.92 C10.0833333,10.08 10.25,10.56 10.1666667,10.88 L9.41666667,13.76 C9.5,13.76 9.5,13.76 9.58333333,13.76 C9.5,13.76 9.5,13.76 9.41666667,13.76 L8.41666667,17.76 C8.33333333,17.92 8.08333333,18.24 7.66666667,18.08 C7.66666667,18.24 6.5,17.76 6.5,17.76 L6,19.68 L8,20.32 C8.33333333,20.48 8.66666667,20.48 9,20.64 L8.33333333,23.2 L9.91666667,23.52 L10.5833333,20.96 C11,21.12 11.4166667,21.28 11.8333333,21.44 L11.1666667,24 L12.75,24.32 L13.4166667,21.76 C16.25,22.24 18.4166667,22.08 19.25,19.52 C20,17.44 19.1666667,16.32 17.5833333,15.52 C18.6666667,15.2 19.5,14.56 19.25,13.44 L19.25,13.44 Z M16.3333333,18.72 C15.8333333,20.8 12.0833333,19.52 11,19.2 L11.9166667,15.84 C13,16.16 16.9166667,16.48 16.3333333,18.72 L16.3333333,18.72 Z M16.8333333,13.44 C16.3333333,15.36 13.25,14.24 12.3333333,14.08 L13.1666667,11.04 C14.0833333,11.2 17.4166667,11.36 16.8333333,13.44 L16.8333333,13.44 Z" fill="#FFFFFF"/>
    </g>
</svg>